{"title":"Clash.of.the.Titans.2010.DvDRiP.XViD.Optional MultiSub.Zen_Bud","uid":5771248,"size":1486452585,"categoryP":"video","categoryS":"movies","magnet":"?xt=urn:btih:5aedcba27ecff3adfc28def647895a4a9768de26&amp;dn=Clash.of.the.Titans.2010.DvDRiP.XViD.Optional+MultiSub.Zen_Bud&amp;tr=udp%3A%2F%2Ftracker.openbittorrent.com%3A80&amp;tr=udp%3A%2F%2Fopen.demonii.com%3A1337&amp;tr=udp%3A%2F%2Ftracker.coppersurfer.tk%3A6969&amp;tr=udp%3A%2F%2Fexodus.desync.com%3A6969","seeders":0,"leechers":0,"uploader":"Zen_Bud","files":-1,"time":1282119636,"description":"General\n\nComplete name                    : Clash.of.the.Titans.2010.avi\nFormat                           : AVI\nFile size                        : 1.37 GiB\nDuration                         : 1h 41mn\nOverall bit rate                 : 1 926 Kbps\n\nVideo\nID                               : 0\nFormat                           : MPEG-4 Visual\nCodec ID/Hint                    : XviD\nDuration                         : 1h 41mn\nBit rate                         : 1 531 Kbps\nWidth                            : 720 pixels\nHeight                           : 428 pixels\nDisplay aspect ratio             : 2.35:1\nStream size                      : 1.09 GiB (79%)\nWriting library                  : XviD 1.1.2 (UTC 2006-11-01)\n\nAudio\n\nFormat                           : AC-3\nDuration                         : 1h 41mn\nBit rate                         : 384 Kbps\nChannel(s)                       : 6 channels\nChannel positions                : Front: L C R, Side: L R, LFE\nSampling rate                    : 48.0 KHz\nStream size                      : 280 MiB (20%)\n\n\n\nSubtitles: English Dutch French Greek Danish Finnish Norwegian Swedish \n","torrent":{"xt":"urn:btih:5aedcba27ecff3adfc28def647895a4a9768de26","amp;dn":"Clash.of.the.Titans.2010.DvDRiP.XViD.Optional+MultiSub.Zen_Bud","amp;tr":["udp%3A%2F%2Ftracker.openbittorrent.com%3A80","udp%3A%2F%2Fopen.demonii.com%3A1337","udp%3A%2F%2Ftracker.coppersurfer.tk%3A6969","udp%3A%2F%2Fexodus.desync.com%3A6969"],"infoHash":"5aedcba27ecff3adfc28def647895a4a9768de26","infoHashBuffer":{"type":"Buffer","data":[90,237,203,162,126,207,243,173,252,40,222,246,71,137,90,74,151,104,222,38]},"announce":[],"urlList":[]}}